<?xml version="1.0" encoding="UTF-8"?><svg id="Calque_2" xmlns="http://www.w3.org/2000/svg" viewBox="0 0 1707.47 1000"><defs><style>.cls-1{fill:#fff;}.cls-2{fill:#2d0f64;}.cls-3{fill:#7850dc;}</style></defs><g id="Calque_1-2"><g><path class="cls-2" d="m1703.6,343.33l-61.2-119.84-29.32-6.65-164.22,125.73c.38-3.77.58-7.6.58-11.49,0-29.4-12.39-53.77-33.17-69.4-2-1.84-117.33-97.95-119.52-99.6-16.55-15.22-39.8-24.08-67.14-24.08H55.49L0,400.29l47.21,39.34L.08,662.4l41.44,34.53L.14,895.15l125.81,104.85h1442.56l138.95-643.66-3.86-13.01Z"/><path class="cls-3" d="m1408.28,550.11l-10.86-3.65-144.89-4.14,342.24-262.03-74.48,350.24-112.01-80.42Z"/><g><path class="cls-1" d="m51.74,358.35l37.74-178.4h40.26l-38,178.4h-40.01Z"/><path class="cls-1" d="m241.96,358.35l-47.3-117-24.91,117h-39.25l37.74-178.4h45.29l42.78,108.7,23.15-108.7h39.76l-37.99,178.4h-39.25Z"/><path class="cls-1" d="m395.71,306.26l68.19-126.31h45.29l-102.66,178.4h-41.01l-27.17-178.4h41.52l15.85,126.31Z"/><path class="cls-1" d="m493.09,358.35l37.74-178.4h112.98l-8.05,37.49h-73.22l-7.3,33.97h66.43l-7.3,34.98h-66.43l-7.3,34.22h73.47l-8.05,37.74h-112.98Z"/><path class="cls-1" d="m750.75,358.35l-47.3-117-24.91,117h-39.25l37.74-178.4h45.29l42.78,108.7,23.15-108.7h39.76l-37.99,178.4h-39.25Z"/><path class="cls-1" d="m936.95,217.94l-29.94,140.4h-39.76l29.69-140.4h-52.34l8.3-38h142.16l-8.3,38h-49.82Z"/><path class="cls-1" d="m981.5,358.35l37.74-178.4h112.98l-8.05,37.49h-73.22l-7.3,33.97h66.43l-7.3,34.98h-66.43l-7.3,34.22h73.47l-8.05,37.74h-112.98Z"/><path class="cls-1" d="m1200.15,291.92h-18.62l-14.09,66.43h-39.76l37.74-178.4h64.16c34.22,0,52.08,19.88,52.08,46.3,0,29.69-18.12,51.08-43.28,59.63l26.67,72.47h-42.02l-22.9-66.43Zm11.07-34.22c18.37,0,29.44-10.82,29.44-25.66,0-10.82-6.29-17.87-20.89-17.87h-21.89l-9.31,43.53h22.64Z"/><path class="cls-1" d="m51.82,620.46l44.04-208.14h46.38l-34.93,163.81h88.36l-9.39,44.33H51.82Z"/><path class="cls-1" d="m215.92,620.46l44.04-208.14h131.81l-9.4,43.74h-85.43l-8.51,39.63h77.5l-8.51,40.81h-77.5l-8.51,39.93h85.72l-9.4,44.04h-131.81Z"/><path class="cls-1" d="m491.29,562.92c0-8.22-3.23-14.97-14.97-19.96l-24.37-9.98c-28.18-11.45-41.1-32.29-41.1-57.25,0-41.1,35.52-67.52,75.74-67.52,57.25,0,71.92,39.34,71.92,60.77l-43.15,7.05c0-5.87-2.64-27.6-30.82-27.6-17.03,0-27.01,11.74-27.01,23.19,0,10.57,6.46,16.14,14.68,19.67l22.02,9.39c32.29,13.8,45.21,33.17,45.21,58.71,0,32.59-27.3,65.46-75.45,65.46-59.01,0-79.56-39.63-79.56-66.64,0-3.82.29-6.17.59-7.93l42.57-7.34c-.29,1.47-.59,4.11-.59,6.75,0,17.32,10.57,34.35,36.11,34.93,17.91,0,28.18-8.51,28.18-21.72Z"/><path class="cls-1" d="m757.26,407.92c59.3,0,83.96,38.75,88.66,67.52l-45.5,14.09c-2.93-15.26-14.38-36.99-46.38-36.99-30.24,0-63.12,26.13-63.12,74.86,0,29.65,18.79,52.25,49.91,52.25s43.15-21.14,49.32-34.93l41.39,16.73c-9.98,26.71-38.16,63.7-94.82,63.7s-93.35-40.51-93.35-95.12c0-76.62,55.48-121.83,112.73-121.83l1.18-.29Z"/><path class="cls-1" d="m845.62,620.46l44.04-208.14h133.87l-9.4,44.04h-87.78l-9.1,44.04h77.21l-9.1,42.27h-76.62l-16.73,77.79h-46.38Z"/><path class="cls-1" d="m1125.68,578.19h-77.21l-23.19,42.27h-51.96l120.95-208.14h53.72l31.41,208.14h-48.14l-5.58-42.27Zm-53.72-42.27h48.14l-9.1-71.63-39.04,71.63Z"/><path class="cls-1" d="m51.74,853.22l37.24-178.4h55.1c49.82,0,78.76,30.7,78.76,75.23,0,66.43-46.05,103.16-95.61,103.16H51.74Zm77.25-38.25c34.22,0,53.09-32.46,53.09-62.15,0-23.65-12.08-40.76-40.26-40.76h-21.39l-21.64,102.91h30.19Z"/><path class="cls-1" d="m231.15,853.22l37.74-178.4h112.98l-8.05,37.49h-73.22l-7.3,33.97h66.43l-7.3,34.98h-66.43l-7.3,34.22h73.47l-8.05,37.74h-112.98Z"/><path class="cls-1" d="m443.02,853.22l37.24-178.4h55.11c49.82,0,78.76,30.7,78.76,75.23,0,66.43-46.05,103.16-95.62,103.16h-75.48Zm77.25-38.25c34.22,0,53.09-32.46,53.09-62.15,0-23.65-12.08-40.76-40.26-40.76h-21.39l-21.64,102.91h30.19Z"/><path class="cls-1" d="m622.43,853.22l37.74-178.4h112.98l-8.05,37.49h-73.22l-7.3,33.97h66.43l-7.3,34.98h-66.43l-7.3,34.22h73.47l-8.05,37.74h-112.98Z"/><path class="cls-1" d="m930.92,853.22l25.16-118.01-70.45,118.01h-31.71l-22.9-116.5-24.91,116.5h-37.49l37.74-178.4h49.32l24.41,120.28,69.95-120.28h57.87l-37.99,178.4h-39Z"/><path class="cls-1" d="m1116.36,816.98h-66.18l-19.88,36.23h-44.54l103.67-178.4h46.05l26.92,178.4h-41.27l-4.78-36.23Zm-46.05-36.23h41.27l-7.8-61.4-33.47,61.4Z"/><path class="cls-1" d="m1179.28,853.22l37.74-178.4h40.26l-37.99,178.4h-40.01Z"/><path class="cls-1" d="m1369.5,853.22l-47.3-117-24.91,117h-39.25l37.74-178.4h45.29l42.78,108.7,23.15-108.7h39.76l-37.99,178.4h-39.25Z"/></g><g><g><path class="cls-2" d="m76.49,61.31l9.47-44.72h-10.7l-11.63,54.97h34.57l2.16-10.25h-23.87Z"/><path class="cls-2" d="m144.32,16.59h-12.24l-32.17,54.97h12.02l7.05-12.57h21.24l1.79,12.57h11.09l-8.77-54.97Zm-19.84,32.64l11.48-20.62,2.86,20.62h-14.34Z"/><path class="cls-2" d="m197.05,16.59l-7.52,35.81c-1.4,6.51-5.05,9.92-10.62,9.92-6.51,0-9.31-3.47-9.31-8.59,0-1.09.14-2.26.39-3.49l7.05-33.65h-10.7l-6.96,33.18c-.39,1.87-.64,3.66-.64,5.36,0,10.76,7.68,17.58,19.31,17.58,10.7,0,19.31-6.35,21.86-18.53l7.99-37.59h-10.85Z"/><path class="cls-2" d="m254.18,30.7c0-8.07-5.51-14.11-15.74-14.11h-19.15l-11.63,54.97h10.7l4.5-21.24h6.96l7.68,21.24h11.4l-8.55-22.64c7.99-2.4,13.8-8.92,13.8-18.22Zm-21.16,10.31h-8.22l3.25-15.12h7.99c4.89,0,7.21,2.49,7.21,6.2,0,5.34-4.03,8.92-10.23,8.92Z"/><path class="cls-2" d="m288.69,2.87l-9.92,9.84h9.92l13.09-9.84h-13.09Zm10.99,23.81l2.18-10.09h-34.26l-11.63,54.97h34.26l2.1-10.09h-23.56l2.71-12.72h21.32l2.01-9.53h-21.32l2.71-12.55h23.48Z"/><path class="cls-2" d="m338.83,16.59h-12.24l-32.17,54.97h12.02l7.05-12.57h21.24l1.79,12.57h11.09l-8.77-54.97Zm-19.84,32.64l11.48-20.62,2.86,20.62h-14.34Z"/><path class="cls-2" d="m353.42,16.59l-2.18,10.15h16.68l-9.47,44.82h10.7l9.45-44.82h15.98l2.16-10.15h-43.32Z"/><path class="cls-2" d="m439.94,16.59h-16.29l-11.54,54.97h22.25c15.04,0,29.46-11.32,29.46-32.11,0-13.64-8.92-22.86-23.87-22.86Zm-5.2,44.88h-10l7.44-34.96h6.82c9.31,0,13.89,5.42,13.89,13.95,0,13.11-9.22,21.01-18.14,21.01Z"/><path class="cls-2" d="m507.77,16.59l-7.52,35.81c-1.4,6.51-5.05,9.92-10.62,9.92-6.51,0-9.31-3.47-9.31-8.59,0-1.09.14-2.26.39-3.49l7.05-33.65h-10.7l-6.96,33.18c-.39,1.87-.62,3.66-.62,5.36,0,10.76,7.66,17.58,19.29,17.58,10.7,0,19.31-6.35,21.86-18.53l7.99-37.59h-10.85Z"/><path class="cls-2" d="m567.78,16.59h-17.91l-11.63,54.97h10.7l4.42-20.87h9.7c12.39-.06,21.24-7.13,21.24-18.9,0-8.92-6.68-15.2-16.52-15.2Zm-4.81,24.88h-7.68l3.41-15.57h6.59c5.51,0,7.99,2.71,7.99,6.66,0,5.9-4.42,8.92-10.31,8.92Z"/><path class="cls-2" d="m630.18,30.7c0-8.07-5.51-14.11-15.74-14.11h-19.15l-11.63,54.97h10.68l4.5-21.24h6.98l7.66,21.24h11.4l-8.52-22.64c7.99-2.4,13.8-8.92,13.8-18.22Zm-21.16,10.31h-8.22l3.25-15.12h7.99c4.89,0,7.21,2.49,7.21,6.2,0,5.34-4.05,8.92-10.23,8.92Z"/><path class="cls-2" d="m663.28,15.44c-14.95,0-29.52,11.85-29.52,32.7,0,14.56,9.76,24.57,24.34,24.57s29.46-11.85,29.46-32.7c0-14.65-9.61-24.57-24.28-24.57Zm-4.72,46.96c-8.36,0-13.87-5.73-13.87-15.04,0-12.02,7.74-21.77,17.97-21.77,8.61,0,13.89,5.81,13.89,15.04-.16,12.86-8.16,21.77-18,21.77Z"/><path class="cls-2" d="m715.7,52.25h17.05c-1.87,6.2-7.37,10.62-15.2,10.62-9.06,0-14.17-6.35-14.17-15.65,0-13.33,8.44-21.71,18.14-21.71,8.75,0,12.63,5.34,13.64,10.31l10.46-3.1c-1.46-8.38-8.44-17.28-23.25-17.28s-29.91,11.77-29.91,32.4c0,14.81,9.61,24.73,23.4,24.73,6.51,0,11.63-2.65,14.81-6.68l-.23,5.67h8.22l5.96-28.62h-26.97l-1.93,9.31Z"/><path class="cls-2" d="m795.16,30.7c0-8.07-5.51-14.11-15.74-14.11h-19.15l-11.63,54.97h10.7l4.48-21.24h6.98l7.68,21.24h11.38l-8.52-22.64c7.99-2.4,13.8-8.92,13.8-18.22Zm-21.16,10.31h-8.22l3.25-15.12h7.99c4.89,0,7.21,2.49,7.21,6.2,0,5.34-4.03,8.92-10.23,8.92Z"/><path class="cls-2" d="m834.31,16.59h-12.24l-32.17,54.97h12.02l7.05-12.57h21.24l1.79,12.57h11.07l-8.75-54.97Zm-19.84,32.64l11.46-20.62,2.88,20.62h-14.34Z"/><path class="cls-2" d="m905.08,16.59l-23.62,39.46-8.69-39.46h-13.11l-11.63,54.97h10.23l8.07-37.84,8.13,37.84h8.44l23.34-38.31-8.05,38.31h10.54l11.63-54.97h-15.28Z"/><path class="cls-2" d="m977.97,16.59l-23.64,39.46-8.69-39.46h-13.09l-11.63,54.97h10.23l8.05-37.84,8.13,37.84h8.46l23.34-38.31-8.07,38.31h10.54l11.63-54.97h-15.26Z"/><path class="cls-2" d="m1037.33,26.68l3.88-10.09h-35.81l-11.63,54.97h26.32l3.88-10.09h-17.4l2.71-12.72h19.58l3.66-9.53h-21.22l2.71-12.55h23.32Z"/></g><g><path class="cls-3" d="m1148.82,60.74c-5.71,0-6.69-3-6.69-6.69v-.03h-13.38v2.53c0,9.18,7.72,17.57,17.57,17.57h9.19v-13.38h-6.69Z"/><path class="cls-3" d="m1085.89,17.18l10.02,27.41h-20.05l10.02-27.41Zm20.76,56.87h15.34l-27.61-72.51h-16.36l-27.82,72.51h14.93l6.04-16.57h29.45l6.03,16.57Z"/><polygon class="cls-3" points="1155.56 21.66 1142.18 21.66 1142.18 8.28 1128.8 8.28 1128.8 21.66 1115.41 21.66 1115.41 35.04 1128.8 35.04 1128.8 48.43 1142.18 48.43 1142.18 35.04 1155.56 35.04 1155.56 21.66"/><rect class="cls-3" x="1163.9" width="13.6" height="74.05"/><path class="cls-3" d="m1208.34,65.35c-4.4,0-6.55-2.86-6.55-5.83,0-3.89,2.76-5.83,6.24-6.34l11.35-1.74v2.25c0,8.9-5.32,11.66-11.05,11.66m-20.15-5.01c0,7.87,6.55,15.14,17.28,15.14,7.47,0,12.27-3.48,14.83-7.47,0,1.94.2,4.7.51,6.03h12.48c-.31-1.74-.61-5.32-.61-7.98v-24.75c0-10.13-5.93-19.13-21.89-19.13-13.5,0-20.76,8.69-21.58,16.57l12.07,2.56c.41-4.4,3.68-8.18,9.61-8.18s8.49,2.97,8.49,6.55c0,1.74-.92,3.17-3.78,3.58l-12.38,1.84c-8.39,1.23-15.03,6.24-15.03,15.24"/><path class="cls-3" d="m1241.18,60.04c.61,5.73,5.83,15.54,20.97,15.54,13.19,0,19.53-8.39,19.53-16.57,0-7.36-5.01-13.4-14.93-15.44l-7.16-1.53c-2.76-.51-4.6-2.05-4.6-4.5,0-2.86,2.86-5.01,6.44-5.01,5.73,0,7.87,3.78,8.28,6.75l11.35-2.56c-.61-5.42-5.42-14.52-19.74-14.52-10.84,0-18.82,7.47-18.82,16.47,0,7.06,4.4,12.89,14.11,15.03l6.65,1.53c3.89.82,5.42,2.66,5.42,4.91,0,2.66-2.15,5.01-6.65,5.01-5.93,0-8.9-3.68-9.2-7.67l-11.66,2.56Z"/></g></g></g></g></svg>