<?xml version="1.0" encoding="UTF-8"?>
<svg xmlns="http://www.w3.org/2000/svg" id="Calque_2" data-name="Calque 2" viewBox="0 0 519.6 93.3">
  <defs>
    <style>
      .cls-1 {
        fill: #fff;
        stroke-width: 0px;
      }
    </style>
  </defs>
  <g id="Calque_1-2" data-name="Calque 1">
    <g>
      <polygon class="cls-1" points="106 0 96.9 0 96.9 47.7 123.1 47.7 123.1 39.7 106 39.7 106 0"></polygon>
      <path class="cls-1" d="m153.1,16c0,1.8.1,2.4.1,2.9h-.3c-1.7-3.1-5.6-5.2-10.6-5.2-9.4,0-16.4,7.2-16.4,17.5s6.6,17.5,16,17.5c5,0,9.1-2.2,11-5.6h.3c-.1.7-.1,1.6-.1,3.1v1.5h8.1V14.7h-8.1v1.3Zm-9.3,24.8c-5.1,0-8.9-4-8.9-9.7s3.8-9.6,8.9-9.6,9,3.9,9,9.6c-.1,5.7-3.8,9.7-9,9.7Z"></path>
      <path class="cls-1" d="m185.5,47.7h9v-16.8h24.2V0h-33.2v47.7Zm9-39.8h15.2v15.3h-15.2V7.9Z"></path>
      <polygon class="cls-1" points="235.2 0 226.3 0 226.3 47.7 242.1 47.7 242.1 39.9 235.2 39.9 235.2 0"></polygon>
      <path class="cls-1" d="m272.1,16c0,1.8.1,2.4.1,2.9h-.3c-1.7-3.1-5.6-5.2-10.6-5.2-9.4,0-16.4,7.2-16.4,17.5s6.6,17.5,16,17.5c5,0,9.1-2.2,11-5.6h.3c-.1.7-.1,1.6-.1,3.1v1.5h8.1V14.7h-8.1v1.3Zm-9.3,24.8c-5.1,0-8.9-4-8.9-9.7s3.7-9.6,8.9-9.6,9,3.9,9,9.6c-.1,5.7-3.8,9.7-9,9.7Z"></path>
      <polygon class="cls-1" points="299.1 6.4 290.2 6.4 290.2 14.7 287.1 14.7 287.1 22.4 290.2 22.4 290.2 47.7 305.7 47.7 305.7 39.9 299.1 39.9 299.1 22.4 306.7 22.4 306.7 14.7 299.1 14.7 299.1 6.4"></polygon>
      <path class="cls-1" d="m327.7,13.7c-10.2,0-17.5,7.2-17.5,17.5s7.2,17.5,17.7,17.5c5.6,0,10.1-2,13.5-6.4l-5.1-5.4c-2.2,2.7-4.6,3.9-8.3,3.9-4.6,0-7.6-2.5-8.5-6.8h24.2c.2-.8.3-1.9.3-2.8-.2-10.2-6.7-17.5-16.3-17.5Zm-8.4,14.6c.9-4.3,3.8-6.9,8.1-6.9s7,2.7,7.6,6.9h-15.7Z"></path>
      <polygon class="cls-1" points="351.2 14.7 348.1 14.7 348.1 22.4 351.2 22.4 351.2 47.7 360.1 47.7 360.1 22.4 367.5 22.4 367.5 14.7 360.1 14.7 360.1 7.4 367.6 7.4 367.6 0 351.2 0 351.2 14.7"></polygon>
      <path class="cls-1" d="m387.7,13.7c-10.2,0-17.6,7.3-17.6,17.5s7.4,17.5,17.6,17.5,17.7-7.4,17.7-17.5-7.5-17.5-17.7-17.5Zm0,27.1c-5.1,0-8.7-4-8.7-9.7s3.6-9.6,8.7-9.6,8.7,3.9,8.7,9.6-3.5,9.7-8.7,9.7Z"></path>
      <polygon class="cls-1" points="411.9 47.7 420.8 47.7 420.8 22.6 427.7 22.6 427.7 14.7 411.9 14.7 411.9 47.7"></polygon>
      <polygon class="cls-1" points="433.4 47.7 442.3 47.7 442.3 22.4 452 22.4 452 47.7 460.8 47.7 460.8 22.4 470.5 22.4 470.5 47.7 479.4 47.7 479.4 14.7 433.4 14.7 433.4 47.7"></polygon>
      <path class="cls-1" d="m519.6,31.2c0-10.2-6.5-17.5-16.1-17.5-10.2,0-17.5,7.2-17.5,17.5s7.2,17.5,17.7,17.5c5.6,0,10.1-2,13.5-6.4l-5.1-5.4c-2.2,2.7-4.6,3.9-8.3,3.9-4.6,0-7.6-2.5-8.5-6.8h24.2c0-.8.1-1.9.1-2.8Zm-24.5-2.9c.9-4.3,3.8-6.9,8.1-6.9s7,2.7,7.6,6.9h-15.7Z"></path>
      <path class="cls-1" d="m0,0h0v27.9h10.9v12.7c-.9-.2-1.5-.7-2.4-1.4-1.7-1.3-4.1-3.2-8.4-3.2v7.9c1.7,0,2.3.5,3.7,1.5,1.7,1.3,4.1,3.2,8.4,3.2s6.7-1.8,8.4-3.2c1.3-1,2-1.5,3.7-1.5s2.3.5,3.7,1.5c1.7,1.3,4.1,3.2,8.4,3.2s6.7-1.8,8.4-3.2c1.3-1,2-1.5,3.7-1.5s2.3.5,3.7,1.5c1.7,1.3,4.1,3.2,8.4,3.2s6.7-1.8,8.4-3.2c1.3-1,2-1.5,3.7-1.5v-7.9c-4.4,0-6.7,1.8-8.4,3.2-.9.7-1.5,1.2-2.4,1.4v-12.7h10.8V0H0Zm53.8,37.2c-1.4-.7-3.1-1.2-5.4-1.2-4.4,0-6.7,1.8-8.4,3.2-1.3,1-2,1.5-3.7,1.5s-2.3-.5-3.7-1.5c-1.7-1.3-4.1-3.2-8.4-3.2-2.3,0-4,.5-5.4,1.2v-9.3h35v9.3ZM7.9,8h56.7v12H7.9v-12Z"></path>
    </g>
    <g>
      <path class="cls-1" d="m.1,67.1h2.9v17.5h8v2.6H.1v-20.1Z"></path>
      <path class="cls-1" d="m19.3,72.9c2.5,0,4.3,1.2,4.9,2.6h.1c0-.3-.1-.6-.1-1.4v-.7h2.6v13.8h-2.6v-1c0-.6,0-1,.1-1.4h-.1c-.7,1.6-2.6,2.8-5,2.8-4.2,0-7-3.1-7-7.3.1-4.3,3-7.4,7.1-7.4Zm4.9,7.3c0-2.8-1.9-4.8-4.5-4.8s-4.5,2-4.5,4.8,1.9,4.8,4.5,4.8,4.5-2,4.5-4.8Z"></path>
      <path class="cls-1" d="m43.8,72.9c2.4,0,4.3,1.1,5,2.6h.1c0-.3-.1-.7-.1-1.3v-.8h2.6v19.9h-10.3v-2.5h7.4v-4.8c0-.7,0-1,.1-1.4h-.1c-.6,1.4-2.4,2.5-4.7,2.5-3.9,0-6.9-3-6.9-7.1.2-4.1,3-7.1,6.9-7.1Zm-3.8,7.1c0,2.6,1.9,4.5,4.4,4.5s4.4-1.9,4.4-4.5-1.8-4.5-4.4-4.5-4.4,1.9-4.4,4.5Z"></path>
      <path class="cls-1" d="m62.2,73.4v2.6h-3.5v11.2h-2.9v-13.8h6.4Z"></path>
      <path class="cls-1" d="m70.7,72.9c2.5,0,4.3,1.2,4.9,2.6h.1c0-.3-.1-.6-.1-1.4v-.7h2.6v13.8h-2.6v-1c0-.6,0-1,.1-1.4h-.1c-.7,1.6-2.6,2.8-5,2.8-4.2,0-7-3.1-7-7.3.1-4.3,3-7.4,7.1-7.4Zm4.9,7.3c0-2.8-1.9-4.8-4.5-4.8s-4.5,2-4.5,4.8,1.9,4.8,4.5,4.8,4.5-2,4.5-4.8Z"></path>
      <path class="cls-1" d="m88.1,72.9c3.4,0,5.8,2.2,5.8,5.5v8.7h-2.9v-8.7c0-1.7-1.2-2.9-2.9-2.9s-2.9,1.2-2.9,2.9v8.8h-2.9v-8.8c.1-3.3,2.4-5.5,5.8-5.5Z"></path>
      <path class="cls-1" d="m104,72.9c2,0,4,.9,4.8,2.3h.1c-.1-.3-.1-.6-.1-1.4v-6.7h2.9v20.1h-2.6v-.9c0-.6,0-1,.1-1.4h-.1c-.9,1.7-2.8,2.7-5.1,2.7-4.1,0-6.9-3-6.9-7.3s2.8-7.4,6.9-7.4Zm4.9,7.3c0-2.8-1.9-4.8-4.5-4.8s-4.5,2-4.5,4.8,1.9,4.8,4.5,4.8,4.5-2,4.5-4.8Z"></path>
      <path class="cls-1" d="m122.3,87.6c-4.3,0-7.4-3.1-7.4-7.3s3.1-7.3,7.3-7.3,6.8,3.1,6.8,7.3c0,.3,0,.8-.1,1h-11c.4,2.3,2,3.7,4.4,3.7,1.7,0,2.9-.6,3.9-1.9l1.7,1.7c-1.4,1.9-3.3,2.8-5.6,2.8Zm-4.4-8.4h8.2c-.2-2.2-1.8-3.7-4-3.7s-3.8,1.4-4.2,3.7Z"></path>
      <path class="cls-1" d="m145.4,87.6c-4.3,0-7.4-3.1-7.4-7.3s3.1-7.3,7.3-7.3,6.8,3.1,6.8,7.3c0,.3,0,.8-.1,1h-11c.4,2.3,2,3.7,4.4,3.7,1.7,0,2.9-.6,3.9-1.9l1.7,1.7c-1.3,1.9-3.2,2.8-5.6,2.8Zm-4.3-8.4h8.2c-.2-2.2-1.8-3.7-4-3.7s-3.8,1.4-4.2,3.7Zm5-12.7h3.3l-3.5,4.5h-2.7l2.9-4.5Z"></path>
      <path class="cls-1" d="m165.5,77.5c-.8-1.2-2-2-3.8-2-2.6,0-4.4,2-4.4,4.8s1.8,4.8,4.4,4.8c1.8,0,3.1-.9,3.9-2.1l1.7,1.7c-1.1,1.7-3.1,3-5.6,3-4.3,0-7.4-3.1-7.4-7.3s3.2-7.3,7.4-7.3c2.4,0,4.3,1,5.6,2.8l-1.8,1.6Z"></path>
      <path class="cls-1" d="m169,80.3c0-4.2,3.1-7.3,7.3-7.3s7.4,3.1,7.4,7.3-3.1,7.3-7.4,7.3-7.3-3.1-7.3-7.3Zm11.7-.1c0-2.8-1.8-4.8-4.4-4.8s-4.4,2-4.4,4.8,1.8,4.8,4.4,4.8,4.4-2,4.4-4.8Z"></path>
      <path class="cls-1" d="m186.9,67.1h2.9v17.5h3.4v2.5h-6.3v-20Z"></path>
      <path class="cls-1" d="m201.9,87.6c-4.3,0-7.4-3.1-7.4-7.3s3.1-7.3,7.3-7.3,6.8,3.1,6.8,7.3c0,.3,0,.8-.1,1h-11c.4,2.3,2,3.7,4.4,3.7,1.7,0,2.9-.6,3.9-1.9l1.7,1.7c-1.3,1.9-3.2,2.8-5.6,2.8Zm-4.3-8.4h8.2c-.2-2.2-1.8-3.7-4-3.7s-3.9,1.4-4.2,3.7Z"></path>
      <path class="cls-1" d="m224.8,72.9c2,0,4,.9,4.8,2.3h.1c-.1-.3-.1-.6-.1-1.4v-6.7h2.9v20.1h-2.6v-.9c0-.6,0-1,.1-1.4h-.1c-.9,1.7-2.8,2.7-5.1,2.7-4.1,0-6.9-3-6.9-7.3s2.7-7.4,6.9-7.4Zm4.9,7.3c0-2.8-1.9-4.8-4.5-4.8s-4.5,2-4.5,4.8,1.9,4.8,4.5,4.8,4.5-2,4.5-4.8Z"></path>
      <path class="cls-1" d="m242.2,87.6c-3.3,0-5.7-2.3-5.7-5.6v-8.6h2.9v8.7c0,1.7,1.2,2.9,2.8,2.9,1.7,0,2.8-1.2,2.8-2.9v-8.7h2.9v8.7c0,3.2-2.4,5.5-5.7,5.5Z"></path>
      <path class="cls-1" d="m264.4,72.9c3.4,0,5.8,2.2,5.8,5.5v8.7h-2.9v-8.7c0-1.7-1.2-2.9-2.9-2.9s-2.9,1.2-2.9,2.9v8.8h-2.9v-8.8c.1-3.3,2.5-5.5,5.8-5.5Z"></path>
      <path class="cls-1" d="m279.8,87.6c-3.3,0-5.7-2.3-5.7-5.6v-8.6h2.9v8.7c0,1.7,1.2,2.9,2.8,2.9,1.7,0,2.8-1.2,2.8-2.9v-8.7h2.9v8.7c0,3.2-2.4,5.5-5.7,5.5Z"></path>
      <path class="cls-1" d="m289.6,73.4h19.4v13.8h-2.9v-11.3h-5.3v11.3h-2.9v-11.3h-5.3v11.3h-2.9v-13.8h-.1Z"></path>
      <path class="cls-1" d="m319.5,87.6c-4.3,0-7.4-3.1-7.4-7.3s3.1-7.3,7.3-7.3,6.8,3.1,6.8,7.3c0,.3,0,.8-.1,1h-11c.4,2.3,2,3.7,4.4,3.7,1.7,0,2.9-.6,3.9-1.9l1.7,1.7c-1.3,1.9-3.2,2.8-5.6,2.8Zm-4.3-8.4h8.2c-.2-2.2-1.8-3.7-4-3.7s-3.9,1.4-4.2,3.7Zm5-12.7h3.3l-3.5,4.5h-2.7l2.9-4.5Z"></path>
      <path class="cls-1" d="m335.8,73.4v2.6h-3.5v11.2h-2.9v-13.8h6.4Z"></path>
      <path class="cls-1" d="m338.2,69.4c0-1,.8-1.7,1.8-1.7s1.8.7,1.8,1.7-.8,1.7-1.8,1.7c-1.1,0-1.8-.7-1.8-1.7Zm.3,17.8v-13.8h2.9v13.8h-2.9Z"></path>
      <path class="cls-1" d="m351.5,72.9c2.4,0,4.2.9,5.1,2.6h.1c-.1-.3-.1-.7-.1-1.3v-.8h2.7v19.9h-2.9v-7c0-.6,0-.9.1-1.3h-.1c-.7,1.6-2.6,2.6-4.8,2.6-4,0-7-3-7-7.3s3-7.4,6.9-7.4Zm-3.9,7.3c0,2.8,1.9,4.8,4.5,4.8s4.5-2,4.5-4.8-1.8-4.8-4.5-4.8c-2.6.1-4.5,2.1-4.5,4.8Z"></path>
      <path class="cls-1" d="m369.1,87.6c-3.3,0-5.7-2.3-5.7-5.6v-8.6h2.9v8.7c0,1.7,1.2,2.9,2.8,2.9,1.7,0,2.8-1.2,2.8-2.9v-8.7h2.9v8.7c0,3.2-2.4,5.5-5.7,5.5Z"></path>
      <path class="cls-1" d="m385.2,87.6c-4.3,0-7.4-3.1-7.4-7.3s3.1-7.3,7.3-7.3,6.8,3.1,6.8,7.3c0,.3,0,.8-.1,1h-11c.4,2.3,2,3.7,4.4,3.7,1.7,0,2.9-.6,3.9-1.9l1.7,1.7c-1.3,1.9-3.3,2.8-5.6,2.8Zm-4.3-8.4h8.2c-.2-2.2-1.8-3.7-4-3.7s-3.9,1.4-4.2,3.7Z"></path>
      <path class="cls-1" d="m409.7,87.6c-2.2,0-4.1-.9-4.8-2.3h-.1c.1.3.1.6.1,1.3v6.7h-2.9v-19.9h2.7v.8c0,.6,0,1-.1,1.3h.1c.9-1.5,2.7-2.6,5.1-2.6,4,0,6.9,3,6.9,7.3s-3,7.4-7,7.4Zm-4.9-7.4c0,2.8,1.9,4.8,4.5,4.8s4.5-2,4.5-4.8-1.9-4.8-4.5-4.8c-2.7.1-4.5,2.1-4.5,4.8Z"></path>
      <path class="cls-1" d="m418.9,80.3c0-4.2,3.1-7.3,7.3-7.3s7.4,3.1,7.4,7.3-3.1,7.3-7.4,7.3-7.3-3.1-7.3-7.3Zm11.8-.1c0-2.8-1.8-4.8-4.4-4.8s-4.4,2-4.4,4.8,1.8,4.8,4.4,4.8,4.4-2,4.4-4.8Z"></path>
      <path class="cls-1" d="m442.4,87.6c-3.3,0-5.7-2.3-5.7-5.6v-8.6h2.9v8.7c0,1.7,1.2,2.9,2.8,2.9,1.7,0,2.8-1.2,2.8-2.9v-8.7h2.9v8.7c0,3.2-2.4,5.5-5.7,5.5Z"></path>
      <path class="cls-1" d="m458.5,73.4v2.6h-3.5v11.2h-2.9v-13.8h6.4Z"></path>
      <path class="cls-1" d="m468.1,75.9h-1.5v-2.5h1.5v-3.6h2.9v3.6h3.7v2.5h-3.7v8.7h3.3v2.5h-6.2v-11.2Z"></path>
      <path class="cls-1" d="m476.4,80.3c0-4.2,3.1-7.3,7.3-7.3s7.4,3.1,7.4,7.3-3.1,7.3-7.4,7.3-7.3-3.1-7.3-7.3Zm11.7-.1c0-2.8-1.8-4.8-4.4-4.8s-4.4,2-4.4,4.8,1.8,4.8,4.4,4.8,4.4-2,4.4-4.8Z"></path>
      <path class="cls-1" d="m499.9,87.6c-3.3,0-5.7-2.3-5.7-5.6v-8.6h2.9v8.7c0,1.7,1.2,2.9,2.8,2.9,1.7,0,2.8-1.2,2.8-2.9v-8.7h2.9v8.7c0,3.2-2.4,5.5-5.7,5.5Z"></path>
      <path class="cls-1" d="m513.5,78.7l1.8.9c1.7.8,3,1.8,3,4,0,2.4-1.9,4.1-4.9,4.1s-4.5-1.7-5-3.6l2.2-1.2c.2,1.1,1.2,2.4,2.8,2.4,1.1,0,2-.6,2-1.7,0-.8-.5-1.3-1.8-1.9l-1.6-.7c-1.7-.8-3-1.7-3-4,0-2.1,1.9-3.9,4.5-3.9s4.1,1.4,4.8,3.1l-2.1,1.2c-.5-1.1-1.4-1.9-2.7-1.9-1.1,0-1.8.6-1.8,1.5,0,.6.5,1.1,1.8,1.7Z"></path>
    </g>
  </g>
</svg>
