<?xml version="1.0" encoding="UTF-8"?>
<svg width="22px" height="22px" viewBox="0 0 22 22" version="1.1" xmlns="http://www.w3.org/2000/svg" xmlns:xlink="http://www.w3.org/1999/xlink">
    <title>Icon/social/reseau/linkedin Copy 2</title>
    <defs>
        <path d="M0.279,22 L4.994,22 L4.994,7.155 L0.279,7.155 L0.279,22 Z M16.5703,6.8071 C14.0673,6.8071 12.9463,8.2481 12.3203,9.2591 L12.3203,7.1561 L7.6043,7.1561 C7.6673,8.5491 7.6043,22.0001 7.6043,22.0001 L12.3203,22.0001 L12.3203,13.7101 C12.3203,13.2661 12.3503,12.8241 12.4753,12.5061 C12.8163,11.6201 13.5923,10.7021 14.8953,10.7021 C16.6023,10.7021 17.2843,12.0631 17.2843,14.0581 L17.2843,22.0001 L22.0003,22.0001 L22.0003,13.4881 C22.0003,8.9291 19.6743,6.8071 16.5703,6.8071 M2.668,5.5067062e-14 C1.055,5.5067062e-14 1.45661261e-13,1.108 1.45661261e-13,2.564 C1.45661261e-13,3.989 1.023,5.13 2.606,5.13 L2.637,5.13 C4.281,5.13 5.305,3.989 5.305,2.564 C5.274,1.108 4.281,5.5067062e-14 2.668,5.5067062e-14" id="path-1"></path>
    </defs>
    <g id="FONCTIONNEL" stroke="none" stroke-width="1" fill="none" fill-rule="evenodd">
        <g id="PICTOS" transform="translate(-406.000000, -63.000000)">
            <g id="Color/grey/black-100-Copy-7" transform="translate(406.000000, 63.000000)">
                <mask id="mask-2" fill="white">
                    <use xlink:href="#path-1"></use>
                </mask>
                <use id="Mask" fill="#000000" xlink:href="#path-1"></use>
                <g mask="url(#mask-2)" fill="#000000" id="Rectangle-Copy-3">
                    <g transform="translate(-1.000000, -1.000000)">
                        <rect x="0" y="0" width="24" height="24"></rect>
                    </g>
                </g>
            </g>
        </g>
    </g>
</svg>