<?xml version="1.0" encoding="utf-8"?>
<!-- Generator: Adobe Illustrator 27.2.0, SVG Export Plug-In . SVG Version: 6.00 Build 0)  -->
<svg version="1.1" id="layer" xmlns="http://www.w3.org/2000/svg" xmlns:xlink="http://www.w3.org/1999/xlink" x="0px" y="0px"
	 viewBox="0 0 652 325" style="enable-background:new 0 0 652 325;" xml:space="preserve">
<style type="text/css">
	.st0{fill:#7850DC;}
	.st1{fill:#2D2D5A;}
</style>
<path class="st0" d="M280.3,188.5c-14.7,0-17.3-7.7-17.3-17.2h-34.6v6.5c0.3,24.8,20.5,44.8,45.4,45.2h23.8v-34.5H280.3z
	 M390.7,48.6c-0.2-2.7,1.1-5.3,3.4-6.7s5.2-1.4,7.5,0s3.6,4,3.4,6.7c0.2,2.7-1.1,5.3-3.4,6.7s-5.2,1.4-7.5,0
	C391.7,53.9,390.4,51.3,390.7,48.6z M385.1,48.6c0,7.1,5.8,12.8,12.9,12.8s12.9-5.7,12.9-12.8s-5.8-12.8-12.9-12.8
	S385.1,41.5,385.1,48.6z M424.1,47.3V41h2.8c1.1,0,2.2,0.6,2.7,1.6c0.6,1,0.6,2.2,0,3.2s-1.6,1.6-2.7,1.6L424.1,47.3z M427.8,52.1
	c2.2,0.2,4.4-0.6,6-2.1s2.5-3.6,2.5-5.8c0-2.3-1-4.5-2.7-6s-4-2.2-6.2-1.9h-9.3V61h5.6v-8.9H427.8z M454.8,61.5
	c5.5,0.3,10.4-3.3,11.8-8.6l-5.6-1.5c-0.8,2.9-3.5,4.8-6.5,4.6c-1.9,0.1-3.7-0.7-5.1-2s-2.1-3.1-2.1-5c-0.1-2,0.5-3.9,1.9-5.3
	c1.3-1.4,3.2-2.3,5.2-2.3c3-0.2,5.7,1.7,6.3,4.6l5.2-1.8c-1.3-5.2-6.2-8.7-11.5-8.3c-3.5-0.1-6.8,1.3-9.2,3.8s-3.7,5.9-3.5,9.3
	c-0.1,3.4,1.2,6.7,3.6,9.2c2.4,2.4,5.7,3.7,9.2,3.6L454.8,61.5z M477.5,48.6c0-3.9,3.2-7.1,7.1-7.1s7.1,3.2,7.1,7.1
	s-3.2,7.1-7.1,7.1C480.7,55.7,477.5,52.6,477.5,48.6z M472,48.6c0,7.1,5.8,12.8,12.9,12.8s12.9-5.7,12.9-12.8s-5.8-12.8-12.9-12.8
	C477.7,35.8,472,41.5,472,48.6z"/>
<path class="st1" d="M353.3,32.3h-35.2v190.4h35.2V32.3z M381.9,187.4c0,20.2,16.7,38.8,44.6,38.8c15.5,1,30.3-6.2,39-19
	c0,5.2,0.4,10.4,1.3,15.5H499c-1.1-6.8-1.6-13.7-1.6-20.6v-63.6c0-26-15.3-49.2-56.6-49.2c-34.9,0-53.7,22.2-55.7,42.6l31.2,6.6
	c1-12.6,12.2-22,24.9-21.1c14.8,0,22,7.6,22,16.6c0,4.5-2.4,8.1-9.8,9.2l-32.3,4.9C399.2,151.4,381.9,164.3,381.9,187.4L381.9,187.4
	z M434,200.3c-4.3,0.4-8.5-1-11.7-3.8s-5-6.9-5.1-11.1c0-10,7.2-15,16.2-16.3l29.4-4.4v5.5c0,22.9-13.8,30-28.6,30L434,200.3z
	 M521.6,186.4c1.6,14.7,15,40,54.2,40c34.1,0,50.5-21.6,50.5-42.6c0-19-12.9-34.5-38.6-39.7l-18.5-3.9c-7.1-1.3-11.9-5.5-11.9-11.6
	c0-7.4,7.4-12.9,16.7-12.9c10.7-0.9,20.2,6.8,21.4,17.3l29.4-6.6c-1.6-13.9-14-37.3-51.1-37.3c-27.9,0-48.7,19.2-48.7,42.3
	c0,18.2,11.1,33.2,36.5,38.8l17.2,3.9c10,2.1,14,6.9,14,12.6c0,6.9-5.6,12.9-17.2,12.9c-15.3,0-23-9.5-23.8-19.7L521.6,186.4z
	 M118.4,77.7l25.8,70.7H92.5L118.4,77.7z M98,37.1L26.3,224.6h38.5l15.5-42.8h76l15.5,42.8h39.5L140.2,37.1H98z M297.9,83.5h-34.4
	V49.1H229v34.4h-34.4V118H229v34.5h34.4V118h34.4V83.5H297.9z M606.3,281.9c1,4.5,5.2,7.5,9.7,7.1c2.2,0.2,4.4-0.4,6.1-1.9
	c1.7-1.4,2.7-3.5,2.9-5.7c-0.1-3.8-3-6.9-6.8-7.3l-3.9-0.9c-1.9-0.4-2.8-1.4-2.8-2.9c0.3-2,2.1-3.5,4.1-3.2c2.5-0.2,4.7,1.6,5.1,4.1
	l4.2-1.6c-1-4-4.7-6.7-8.8-6.5c-4.5-0.2-8.4,3.2-8.7,7.7c0,3.5,2.7,6.4,6.1,6.8l4.2,0.9c2.1,0.4,3.2,1.6,3.2,3.1s-1.5,3.3-4.2,3.3
	c-2.8,0.2-5.2-1.8-5.6-4.6L606.3,281.9z M597.2,279.9c-0.8,3.1-3.7,5.2-6.9,4.9c-2,0.1-4-0.7-5.4-2.1s-2.2-3.4-2.2-5.4h18.5
	c0-0.5,0-1,0-1.5c0.5-3.3-0.5-6.7-2.8-9.2s-5.6-3.8-8.9-3.6c-6.9,0.6-12.1,6.4-11.9,13.3s5.7,12.4,12.5,12.7c5,0.2,9.6-2.9,11.1-7.7
	L597.2,279.9z M583.1,273.5c0.2-3.5,3.1-6.3,6.7-6.3c1.8-0.2,3.5,0.4,4.8,1.6s2,2.9,2,4.6L583.1,273.5L583.1,273.5z M562.5,267.5
	c3.2-0.1,6,2.1,6.6,5.2l4.3-1.8c-1.4-4.9-6-8.2-11.1-7.7c-3.4,0-6.7,1.3-9,3.8s-3.6,5.8-3.4,9.2c-0.2,3.4,1.1,6.7,3.4,9.1
	s5.6,3.9,9,3.9c5,0.3,9.6-2.9,11.1-7.6l-4.2-1.8c-0.8,3.1-3.7,5.2-6.8,5c-4.4-0.5-7.6-4.2-7.6-8.6s3.3-8.1,7.6-8.6h0.1L562.5,267.5
	L562.5,267.5z M527.1,274.2c0-3.7,1.9-6.7,5.6-6.7c3.6,0,5.6,2.8,5.6,6.2v14.7h5.5v-15.5c0.3-2.5-0.5-5-2.1-6.8
	c-1.7-1.9-4.1-2.9-6.6-2.8c-3.1-0.1-6,1.5-7.6,4.2V264h-4.8v24.5h4.8L527.1,274.2z M511,279.7c-0.8,3.1-3.7,5.2-6.8,4.9
	c-2,0-3.9-0.7-5.3-2.2c-1.4-1.4-2.2-3.3-2.1-5.3h18.6c0-0.5,0-1,0-1.5c0.4-3.3-0.7-6.6-2.9-9.1c-2.3-2.5-5.5-3.8-8.8-3.7
	c-6.9,0.6-12.1,6.4-11.9,13.3s5.7,12.4,12.5,12.7c5,0.2,9.6-2.9,11.1-7.7L511,279.7z M496.9,273.4c0.2-3.6,3.1-6.3,6.7-6.3
	c1.8-0.2,3.6,0.5,4.9,1.7s2,3,1.9,4.8L496.9,273.4z M481.4,255.9H477v4.2c0.1,1-0.3,2-1,2.8c-0.7,0.7-1.8,1.1-2.8,1h-1.3v4.3h5.1
	v13.4c-0.2,1.9,0.5,3.7,1.8,5.1c1.3,1.3,3.1,2,5,1.9c1.1,0,2.2-0.1,3.3-0.4V284h-1.9c-2.5,0-3.4-1.1-3.4-3.3v-12.6h5.6v-4.3h-5.6
	L481.4,255.9z M464.7,253.1h-6.1l-4.5,7.4h4.1L464.7,253.1z M463.8,279.7c-0.8,3.1-3.7,5.1-6.9,4.9c-2,0-3.9-0.7-5.3-2.2
	c-1.4-1.4-2.2-3.3-2.1-5.3h18.4c0-0.5,0-1,0-1.5c0.4-3.3-0.7-6.6-2.9-9.1c-2.3-2.5-5.5-3.8-8.8-3.7c-6.9,0.6-12.1,6.4-11.9,13.3
	s5.7,12.4,12.5,12.7c5,0.2,9.6-2.9,11.1-7.7L463.8,279.7z M449.7,273.4c0.2-3.5,3.1-6.3,6.7-6.3c1.8-0.2,3.5,0.4,4.8,1.6
	s2,2.9,2,4.6L449.7,273.4L449.7,273.4z M434.6,275.9c0,5-2.8,8.6-7.2,8.6c-4.2-0.7-7.2-4.4-7.2-8.6s3-7.8,7.2-8.6
	c2.1,0.1,4.1,1,5.5,2.7C434.2,271.6,434.9,273.8,434.6,275.9z M420.1,297.8V285c1.8,2.6,4.8,4.1,8,3.9c3.2-0.1,6.3-1.6,8.4-4
	s3.1-5.7,2.7-8.9c0.5-3.2-0.5-6.5-2.6-9s-5.3-3.9-8.5-3.8c-3.3-0.2-6.5,1.5-8.2,4.4v-3.8h-4.7v34.1L420.1,297.8z M375.6,288.1v-14.6
	c-0.2-1.6,0.3-3.2,1.4-4.4c1.1-1.2,2.6-1.9,4.2-1.9c1.5-0.1,2.9,0.5,3.9,1.5c1,1.1,1.5,2.5,1.3,4V288h4.8v-14.7
	c-0.2-1.6,0.3-3.2,1.4-4.3c1.1-1.2,2.6-1.8,4.2-1.8c1.5-0.1,2.9,0.5,3.9,1.5c1,1.1,1.5,2.5,1.3,4V288h4.7v-15.8
	c0.3-2.4-0.5-4.8-2.1-6.6c-1.6-1.8-3.9-2.8-6.3-2.8c-3.4-0.2-6.6,1.7-8.2,4.7c-1.2-2.9-4.2-4.8-7.3-4.7c-3-0.1-5.9,1.4-7.5,4v-3.3
	h-4.6V288L375.6,288.1z M351.2,262.9c-5.3-0.2-10.2,2.8-12.4,7.7c-2.2,4.8-1.2,10.5,2.5,14.3s9.3,5,14.3,3c4.9-2,8.1-6.8,8.1-12.1
	c0.2-3.4-1.1-6.7-3.4-9.2C357.9,264.2,354.6,262.9,351.2,262.9z M351.2,284.6c-3.6,0.5-7.2-1.3-8.9-4.5c-1.7-3.2-1.3-7.2,1.1-9.9
	c2.4-2.8,6.3-3.7,9.7-2.5c3.4,1.3,5.7,4.5,5.7,8.2c0.3,2.2-0.4,4.4-1.9,6C355.5,283.6,353.4,284.6,351.2,284.6z M323.4,267.3
	c3.2-0.1,6,2.1,6.6,5.2l4.3-1.8c-1.4-4.9-6-8.1-11.1-7.7c-3.4,0-6.6,1.4-9,3.8c-2.3,2.5-3.5,5.8-3.3,9.1c-0.2,3.4,1.1,6.7,3.4,9.1
	c2.3,2.5,5.6,3.9,9,3.9c5,0.3,9.6-2.9,11.1-7.6l-4.2-1.8c-0.8,3.1-3.7,5.2-6.8,5c-4.2-0.7-7.3-4.3-7.3-8.6
	C316.1,271.6,319.2,268,323.4,267.3L323.4,267.3z M279.4,281.8c1,4.5,5.3,7.6,10,7.1c2.2,0.2,4.4-0.4,6.1-1.9
	c1.7-1.4,2.7-3.5,2.9-5.7c0-3.8-2.9-6.9-6.7-7.3l-4-0.9c-1.9-0.4-2.8-1.4-2.8-2.9c0.2-2,2.1-3.5,4.1-3.2c2.5-0.2,4.7,1.6,5.1,4.1
	l4.2-1.6c-1-4.2-5-7-9.3-6.5c-4.5-0.2-8.4,3.2-8.7,7.7c0,3.5,2.6,6.4,6.1,6.8l4.2,0.9c2.1,0.4,3.2,1.6,3.2,3.1s-1.4,3.3-4.2,3.3
	c-2.8,0.2-5.2-1.8-5.6-4.6L279.4,281.8z M270.2,279.7c-0.8,3.1-3.7,5.2-6.8,4.9c-2,0-3.9-0.7-5.3-2.2c-1.4-1.4-2.2-3.3-2.1-5.3h18.4
	c0-0.5,0-1,0-1.5c0.4-3.3-0.7-6.6-2.9-9.1c-2.3-2.5-5.5-3.8-8.8-3.7c-6.9,0.6-12.1,6.4-11.9,13.3s5.7,12.4,12.5,12.7
	c5,0.2,9.6-2.9,11.1-7.7L270.2,279.7z M256.2,273.4c0.1-3.5,3.1-6.3,6.6-6.3c1.7-0.2,3.5,0.4,4.8,1.6s2,2.9,2,4.6L256.2,273.4
	L256.2,273.4z M243.9,251.1h-5v36.8h4.8L243.9,251.1z M225.6,263.3c-0.5-0.1-1.1-0.1-1.6,0c-3.2-0.1-6.1,1.7-7.3,4.7v-4.3H212v24.5
	h4.8V276c0-5.6,2.7-7.6,6.7-7.6h2.1V263.3z M196.8,254.6c0,1.9,1.5,3.4,3.4,3.4s3.4-1.5,3.4-3.4s-1.5-3.4-3.4-3.4
	c-0.9,0-1.8,0.3-2.5,1C197.1,252.8,196.8,253.7,196.8,254.6z M202.6,263.8h-4.7v24.5h4.7V263.8z M173,274.2c0-3.7,1.9-6.7,5.6-6.7
	c3.6,0,5.6,2.8,5.6,6.2v14.7h4.8v-15.5c0.3-2.5-0.5-5-2.1-6.8c-1.7-1.9-4.1-2.9-6.6-2.8c-3.1-0.1-6,1.5-7.6,4.2V264H168v24.5h4.8
	L173,274.2z M156.8,279.7c-0.8,3.1-3.7,5.2-6.8,4.9c-2,0-3.8-0.7-5.2-2.1s-2.2-3.2-2.2-5.2H161c0-0.5,0-1,0-1.5
	c0.4-3.3-0.7-6.6-2.9-9.1c-2.3-2.5-5.5-3.8-8.8-3.7c-6.9,0.6-12.1,6.4-11.9,13.3c0.2,6.9,5.7,12.4,12.5,12.7c5,0.2,9.6-2.9,11.1-7.7
	L156.8,279.7z M142.8,273.4c0.1-3.5,3.1-6.3,6.6-6.3c1.7-0.2,3.5,0.4,4.8,1.6s2,2.9,2,4.6L142.8,273.4L142.8,273.4z M127.2,255.9
	h-4.3v4.2c0.1,1-0.3,2-1,2.8c-0.7,0.7-1.8,1.1-2.8,1h-1.3v4.3h4.7v13.4c-0.2,1.9,0.5,3.7,1.8,5.1c1.3,1.3,3.1,2,5,1.9
	c1.1,0,2.2-0.2,3.3-0.4V284h-1.9c-2.5,0-3.4-1.1-3.4-3.3v-12.6h5.6v-4.3h-5.6L127.2,255.9L127.2,255.9L127.2,255.9z M107.1,285.2
	c-0.1,1-0.1,2,0,2.9h4.6c-0.2-1.5-0.3-3-0.3-4.5v-19.8h-4.7v14.8c0.2,1.6-0.3,3.3-1.5,4.5c-1.1,1.2-2.7,1.8-4.4,1.7
	c-4,0-5.6-2.9-5.6-6.3v-14.7h-4.8v15.5c-0.2,2.5,0.7,5.1,2.4,6.9c1.7,1.8,4.2,2.9,6.8,2.9c3,0.2,5.9-1.2,7.5-3.7V285.2z M71.6,262.9
	c-5.3-0.2-10.2,2.8-12.4,7.7s-1.2,10.5,2.5,14.3c3.7,3.8,9.3,5,14.3,3c4.9-2,8.1-6.8,8.1-12.1c0.2-3.4-1.1-6.7-3.5-9.2
	C78.3,264.2,75,262.9,71.6,262.9z M71.6,284.6c-3.6,0.5-7.2-1.4-8.9-4.6c-1.7-3.2-1.3-7.2,1.2-9.9c2.4-2.7,6.3-3.7,9.7-2.4
	c3.4,1.3,5.7,4.6,5.7,8.2c0.3,2.2-0.4,4.4-1.9,6.1C75.9,283.6,73.8,284.6,71.6,284.6z M54.1,260.4c-1.1-5.7-6.4-9.6-12.2-8.9
	c-6.3-0.4-11.7,4.4-12.1,10.7c0,5,3.8,9.2,8.8,9.8l5.2,1.2c3,0.1,5.4,2.5,5.6,5.6c0,3.2-2.4,5.6-7.5,5.6c-4.5,0.4-8.4-3-8.8-7.5
	l-4.8,1.5c0.9,6.6,6.8,11.3,13.5,10.7c3.1,0.4,6.2-0.6,8.5-2.6c2.4-2,3.8-4.9,3.9-8.1c-0.1-5.2-4.1-9.6-9.3-10.1l-5.6-1.2
	c-2.8-0.3-4.8-2.8-4.6-5.6c0.1-1.7,0.9-3.3,2.2-4.5c1.3-1.1,3-1.7,4.8-1.5c3.8-0.2,7.1,2.5,7.6,6.2L54.1,260.4z"/>
</svg>
